<svg width="159" height="49" viewBox="0 0 159 49" fill="none" xmlns="http://www.w3.org/2000/svg">
<rect x="40.209" y="20.8488" width="35.7907" height="3.97674" fill="#F97316"/>
<rect x="40.209" y="24.8256" width="3.53488" height="22.093" fill="#F97316"/>
<rect x="53.9072" y="24.8256" width="3.53488" height="22.093" fill="#F97316"/>
<rect x="76" y="24.8256" width="3.53488" height="22.093" fill="#FDBA74"/>
<rect x="91.4648" y="24.8256" width="3.53488" height="22.093" fill="#FDBA74"/>
<rect x="76" y="20.8488" width="19" height="3.97674" fill="#FDBA74"/>
<rect y="13.7791" width="16.3488" height="16.1279" fill="#F97316"/>
<rect y="29.907" width="16.3488" height="3.97674" fill="#FDBA74"/>
<rect x="16.3486" y="29.907" width="10.6047" height="3.97674" fill="#F97316"/>
<rect x="12.8145" y="33.8837" width="3.53488" height="13.2558" fill="#F97316"/>
<rect y="33.8837" width="3.53488" height="13.2558" fill="#F97316"/>
<rect x="23.4189" y="33.8837" width="3.53488" height="13.2558" fill="#F97316"/>
<path d="M58.2998 19.1107H64.2448H76.0485V20.868H58.2998V19.1107Z" fill="#EA580C"/>
<path d="M64.2744 19.1108L64.6259 10.5H76.6634L76.0483 19.1108H64.2744Z" fill="#FDBA74"/>
<path d="M65.5928 18.0564L66.0321 11.6422H75.4336L74.9065 18.0564H65.5928Z" fill="#FFEDD5"/>
<path d="M115.481 30.5693C113.96 30.8853 112.713 31.5677 111.693 32.6696C110.896 33.5279 110.539 34.2666 110.565 35.0409C110.59 35.7439 110.838 36.2237 111.344 36.5707C112.221 37.158 113.358 37.0819 114.201 36.385L114.632 36.0209L114.707 36.4362C114.804 36.922 115.144 37.4287 115.492 37.5882C116.128 37.879 117.235 37.549 117.727 36.907C117.968 36.6015 117.968 36.6015 118.086 36.8008C118.183 36.9704 118.169 37.1546 118.015 37.6505C117.158 40.572 113.472 43.5951 108.077 45.8618C106.954 46.325 104.08 47.9396 104.664 47.9162C105.087 47.8993 109.873 45.5976 111.505 44.7059C115.057 42.7681 117.886 40.0532 118.472 38.0301L118.625 37.524L119.22 37.5104C119.572 37.4963 119.863 37.4439 119.94 37.3591C120.319 36.9461 120.303 37.365 119.907 38.7378C118.926 42.1235 116.918 44.9891 114.116 47.0397C113.379 47.5794 113.16 47.5088 113.354 47.5827C113.518 47.6476 113.848 47.7239 114.321 47.4091C116.419 46.0089 118.539 43.4551 119.654 41.0129C120.037 40.1609 120.746 37.9288 120.735 37.6028C120.727 37.3583 120.847 37.3534 121.088 37.5989C121.569 38.1 122.544 38.0099 123.107 37.4058L123.428 37.0665L123.582 37.4175C123.669 37.618 123.797 37.8067 123.858 37.8349C124.002 37.9209 124.044 39.1232 123.946 40.0861C123.611 43.2113 122.067 46.0788 119.741 47.8961C119.706 47.9166 121.101 47.8254 121.377 47.9164C121.377 47.9164 120.332 48.0765 121.257 47.1314C123.311 45.0291 124.465 42.2487 124.496 39.3703L124.515 38.1759L125.009 38.1561C125.562 38.134 126.187 37.8335 126.416 37.4672C126.799 36.8806 126.353 36.7964 125.838 37.3578C125.556 37.6649 125.427 37.7313 125.055 37.7462C124.692 37.7607 124.549 37.7052 124.299 37.4602C124.007 37.176 123.995 37.1255 123.963 36.1983C123.93 35.2406 123.929 35.2304 123.689 35.2707C123.498 35.2987 123.422 35.4242 123.297 35.8985C123.137 36.5068 122.833 37.0597 122.501 37.3587C121.963 37.8393 121.262 37.3879 121.119 36.4652C121.068 36.1611 121.051 35.6619 121.071 35.355C121.09 35.0482 121.09 34.7625 121.068 34.7124C120.994 34.5929 120.633 34.6482 120.597 34.7822C120.579 34.8544 120.492 35.2354 120.415 35.6262C120.223 36.501 119.731 37.1431 119.228 37.1632C118.765 37.1817 118.561 36.8328 118.456 35.827C118.391 35.1154 118.347 35.005 118.196 35.011C118.065 35.0162 117.959 35.1735 117.833 35.5867C117.398 37.0018 116.294 37.7296 115.585 37.0642C115.325 36.8195 115.312 36.7486 115.268 35.7607C115.238 34.8947 115.201 34.7125 115.07 34.6974C114.978 34.6807 114.831 34.7988 114.726 34.956C114.028 36.0654 113.193 36.6804 112.524 36.5745C111.662 36.4356 111.009 35.6251 111.102 34.8052C111.275 33.4107 112.952 31.7724 114.866 31.1551C115.764 30.8641 119.106 30.7202 120.474 30.9307C122.287 31.1947 123.593 31.6322 124.85 32.4083C126.487 33.414 127.365 34.6032 127.716 36.2726C128.357 39.379 126.644 44.3244 123.911 47.219C123.396 47.76 123.361 47.9144 123.743 47.8991C124.116 47.8842 125.412 46.3224 126.26 44.8805C128.44 41.1714 129.013 36.7614 127.62 34.3889C126.473 32.4249 123.894 31.0182 120.592 30.5586C119.316 30.3853 116.382 30.3904 115.481 30.5693Z" fill="#EA580C" stroke="#EA580C" stroke-width="0.8"/>
<path d="M134.197 36.3954C133.137 36.6107 132.268 37.074 131.556 37.8214C131 38.4036 130.751 38.9044 130.769 39.429C130.786 39.9053 130.958 40.2302 131.311 40.465C131.921 40.8622 132.713 40.8098 133.301 40.3369L133.601 40.0899L133.653 40.3712C133.721 40.7003 133.957 41.0434 134.2 41.1512C134.642 41.3478 135.414 41.1234 135.757 40.6879C135.926 40.4807 135.926 40.4807 136.008 40.6157C136.075 40.7305 136.065 40.8554 135.957 41.1915C135.359 43.1717 132.789 45.2229 129.028 46.7629C128.245 47.0776 126.242 48.1738 126.649 48.1576C126.943 48.1458 130.279 46.5825 131.417 45.977C133.893 44.6613 135.866 42.8196 136.275 41.4483L136.383 41.1053L136.797 41.0957C137.042 41.0858 137.245 41.0501 137.299 40.9926C137.563 40.7124 137.552 40.9963 137.275 41.9268C136.589 44.2216 135.188 46.1648 133.235 47.5564C132.721 47.9226 132.569 47.875 132.704 47.9249C132.818 47.9687 133.047 48.0202 133.377 47.8065C134.84 46.8562 136.318 45.1242 137.097 43.4685C137.365 42.891 137.86 41.378 137.852 41.1571C137.847 40.9914 137.931 40.9881 138.098 41.1542C138.433 41.4933 139.112 41.4316 139.505 41.0218L139.729 40.7917L139.836 41.0293C139.897 41.1652 139.985 41.2929 140.028 41.312C140.128 41.3702 140.157 42.1847 140.088 42.8373C139.852 44.9551 138.775 46.8992 137.153 48.1323C137.128 48.1463 138.101 48.0834 138.293 48.1448C138.293 48.1448 137.565 48.2541 138.21 47.6131C139.642 46.187 140.448 44.3022 140.471 42.3519L140.486 41.5425L140.829 41.5288C141.215 41.5133 141.65 41.3092 141.81 41.0609C142.078 40.6631 141.767 40.6064 141.408 40.9872C141.211 41.1955 141.121 41.2406 140.862 41.2509C140.609 41.2611 140.51 41.2236 140.335 41.0577C140.132 40.8654 140.124 40.8312 140.102 40.203C140.08 39.5541 140.079 39.5472 139.912 39.5746C139.779 39.5938 139.726 39.6789 139.639 40.0003C139.526 40.4127 139.315 40.7875 139.083 40.9903C138.708 41.3164 138.22 41.0111 138.121 40.386C138.085 40.18 138.074 39.8417 138.088 39.6338C138.102 39.4259 138.102 39.2323 138.087 39.1984C138.035 39.1175 137.783 39.1552 137.758 39.2461C137.746 39.2949 137.685 39.5532 137.63 39.818C137.496 40.411 137.153 40.8464 136.803 40.8604C136.48 40.8733 136.338 40.637 136.266 39.9556C136.221 39.4735 136.19 39.3987 136.085 39.4029C135.994 39.4065 135.92 39.5132 135.832 39.7932C135.528 40.7524 134.758 41.2464 134.265 40.7961C134.084 40.6305 134.075 40.5825 134.045 39.9131C134.024 39.3264 133.999 39.203 133.907 39.1928C133.844 39.1815 133.741 39.2617 133.668 39.3683C133.181 40.1205 132.598 40.5379 132.132 40.4667C131.532 40.3732 131.078 39.8245 131.143 39.2689C131.265 38.3239 132.434 37.2125 133.768 36.7928C134.393 36.5949 136.722 36.4948 137.675 36.6364C138.938 36.814 139.847 37.1094 140.722 37.6343C141.863 38.3145 142.474 39.1195 142.716 40.2504C143.162 42.3548 141.964 45.707 140.059 47.6704C139.699 48.0373 139.675 48.142 139.941 48.1313C140.201 48.121 141.105 47.0617 141.696 46.0841C143.218 43.5692 143.62 40.5806 142.651 38.9742C141.854 37.6443 140.058 36.6931 137.757 36.3842C136.868 36.2677 134.825 36.2735 134.197 36.3954Z" fill="#EA580C" stroke="#EA580C" stroke-width="0.8"/>
<path d="M149.141 39.3034C148.327 39.4678 147.66 39.8215 147.114 40.3918C146.687 40.836 146.495 41.2181 146.509 41.6183C146.522 41.9817 146.654 42.2295 146.925 42.4085C147.393 42.7114 148.001 42.6713 148.453 42.3104L148.684 42.1219L148.723 42.3365C148.775 42.5876 148.957 42.8492 149.143 42.9314C149.483 43.0813 150.075 42.9099 150.339 42.5777C150.468 42.4196 150.468 42.4196 150.531 42.5226C150.583 42.6101 150.575 42.7054 150.492 42.9618C150.032 44.4726 148.059 46.0379 145.171 47.2134C144.57 47.4537 143.031 48.2903 143.344 48.2778C143.57 48.2688 146.132 47.0756 147.006 46.6134C148.907 45.6092 150.422 44.2039 150.736 43.1577L150.819 42.896L151.137 42.8885C151.325 42.881 151.481 42.8537 151.523 42.8098C151.725 42.596 151.717 42.8126 151.504 43.5225C150.977 45.2732 149.901 46.7559 148.401 47.8179C148.006 48.0974 147.889 48.0611 147.993 48.0991C148.08 48.1326 148.257 48.1717 148.51 48.0087C149.634 47.2834 150.769 45.9618 151.367 44.6987C151.573 44.258 151.953 43.1037 151.948 42.9352C151.943 42.8088 152.008 42.8062 152.136 42.9329C152.393 43.1916 152.915 43.1443 153.217 42.8317L153.389 42.656L153.47 42.8373C153.517 42.9409 153.585 43.0384 153.618 43.0529C153.695 43.0973 153.717 43.7187 153.664 44.2165C153.482 45.8321 152.655 47.3155 151.409 48.2565C151.39 48.2671 152.137 48.219 152.284 48.2658C152.284 48.2658 151.725 48.3493 152.221 47.8602C153.321 46.772 153.94 45.334 153.958 43.8461L153.969 43.2287L154.233 43.2181C154.529 43.2063 154.864 43.0505 154.987 42.861C155.192 42.5575 154.953 42.5143 154.677 42.8048C154.526 42.9638 154.457 42.9982 154.258 43.0062C154.064 43.014 153.988 42.9854 153.854 42.8589C153.698 42.7122 153.692 42.6861 153.675 42.2069C153.658 41.7119 153.658 41.7066 153.529 41.7276C153.427 41.7422 153.386 41.8071 153.319 42.0524C153.233 42.367 153.07 42.653 152.892 42.8077C152.604 43.0566 152.229 42.8237 152.154 42.3469C152.127 42.1898 152.118 41.9317 152.128 41.7731C152.139 41.6145 152.139 41.4668 152.128 41.4409C152.088 41.3792 151.895 41.408 151.875 41.4774C151.866 41.5146 151.819 41.7116 151.777 41.9137C151.674 42.3661 151.411 42.6983 151.142 42.7091C150.894 42.719 150.785 42.5388 150.729 42.0189C150.695 41.6512 150.671 41.5941 150.591 41.5973C150.521 41.6001 150.464 41.6815 150.396 41.8952C150.163 42.627 149.572 43.0039 149.193 42.6605C149.054 42.5342 149.047 42.4976 149.024 41.987C149.009 41.5394 148.989 41.4452 148.919 41.4375C148.87 41.4289 148.791 41.4901 148.735 41.5714C148.361 42.1454 147.913 42.4639 147.556 42.4096C147.095 42.3384 146.746 41.92 146.796 41.4961C146.89 40.7752 147.788 39.9271 148.812 39.6066C149.292 39.4556 151.08 39.3787 151.812 39.4866C152.782 39.6218 153.48 39.8469 154.152 40.2472C155.027 40.7659 155.496 41.3799 155.682 42.2426C156.024 43.8478 155.104 46.4053 153.64 47.9035C153.364 48.1835 153.346 48.2634 153.55 48.2552C153.749 48.2472 154.444 47.4389 154.898 46.693C156.067 44.7742 156.376 42.4943 155.633 41.269C155.02 40.2546 153.642 39.5293 151.875 39.2942C151.193 39.2055 149.624 39.2103 149.141 39.3034Z" fill="#EA580C" stroke="#EA580C" stroke-width="0.8"/>
<path d="M148.329 1.10225C148.248 1.23654 147.724 3.46575 147.711 3.70748C147.711 3.77462 147.872 3.80148 148.074 3.77462C148.409 3.73433 148.45 3.65376 148.678 2.66001C149.027 1.10225 149.027 1.06196 148.691 1.00825C148.544 0.981389 148.369 1.02168 148.329 1.10225Z" fill="#1F2937" stroke="#EA580C"/>
<path d="M141.667 1.85428C141.667 1.908 141.949 2.4183 142.298 3.00918C142.795 3.81492 143.01 4.07007 143.238 4.07007C143.399 4.07007 143.56 4.02978 143.587 3.96264C143.628 3.90892 143.372 3.41205 143.023 2.86146C142.526 2.05572 142.325 1.84086 142.03 1.814C141.828 1.78714 141.667 1.814 141.667 1.85428Z" fill="#1F2937" stroke="#EA580C"/>
<path d="M152.706 4.74158C152.089 5.17131 151.592 5.57418 151.592 5.64133C151.592 5.69504 151.74 5.76219 151.901 5.78905C152.223 5.8159 154.291 4.41929 154.398 4.09699C154.519 3.70755 153.754 4.00299 152.706 4.74158Z" fill="#1F2937" stroke="#EA580C"/>
<path d="M145.575 6.97074C144.353 7.29303 143.52 8.08534 142.997 9.40139C142.741 10.046 142.688 10.4354 142.688 11.7246C142.674 13.0944 142.715 13.3495 143.01 13.9404C143.789 15.525 145.28 16.4516 147.106 16.4516C150.074 16.4785 152.101 14.679 151.819 12.2886C151.564 10.0863 149.456 8.72994 147.294 9.34767C146.072 9.71025 145.387 10.6234 145.387 11.8857C145.387 12.4901 145.454 12.7586 145.736 13.1884C146.528 14.3835 148.019 14.5715 148.852 13.5912C149.402 12.9332 149.241 11.8589 148.597 11.8589C148.153 11.8589 148.113 11.9663 148.355 12.3961C148.529 12.7049 148.543 12.8392 148.409 13.1212C148.261 13.4435 148.18 13.4704 147.455 13.4704C146.743 13.4704 146.649 13.4301 146.421 13.1078C146.112 12.6378 146.018 11.5769 146.233 11.0532C146.609 10.1534 147.912 9.4551 148.825 9.65654C149.483 9.79083 150.221 10.328 150.624 10.9323C151.148 11.7246 151.229 13.0675 150.799 13.927C150.168 15.243 148.771 16.0219 147.052 16.0219C145.481 16.0219 144.42 15.3101 143.735 13.8061C143.131 12.4632 143.211 10.6637 143.937 9.09252C144.595 7.66905 145.481 7.23932 147.549 7.30646C149.026 7.36018 149.389 7.17217 148.247 6.93045C147.24 6.72902 146.434 6.74244 145.575 6.97074Z" fill="#1F2937" stroke="#EA580C"/>
<path d="M137.236 7.88391C137.236 8.17934 137.317 8.19277 139.09 8.3002C140.365 8.36735 140.594 8.35392 140.594 8.17934C140.594 7.88391 140.526 7.87048 138.821 7.76304C137.411 7.68247 137.236 7.6959 137.236 7.88391Z" fill="#1F2937" stroke="#EA580C"/>
<path d="M156.131 8.2465C155.997 8.32707 155.433 8.47479 154.869 8.56879C153.808 8.7568 153.633 8.83737 153.835 9.03881C154.117 9.32082 156.977 8.64937 156.977 8.28678C156.977 8.05849 156.48 8.04506 156.131 8.2465Z" fill="#1F2937" stroke="#EA580C"/>
<path d="M154.56 14.3433C154.439 14.491 154.479 14.5715 154.801 14.7327C155.58 15.1356 157.259 15.7533 157.581 15.7533C157.984 15.7533 158.159 15.5116 157.823 15.4041C157.528 15.3101 155.862 14.6521 155.204 14.3567C154.788 14.1821 154.694 14.1821 154.56 14.3433Z" fill="#1F2937" stroke="#EA580C"/>
<path d="M139.586 15.0683C139.291 15.2026 138.633 15.4175 138.109 15.5518C137.075 15.8203 136.806 15.9681 137.129 16.0889C137.558 16.2635 140.862 15.2295 140.862 14.934C140.862 14.7326 140.163 14.8132 139.586 15.0683Z" fill="#1F2937" stroke="#EA580C"/>
<path d="M151.538 18.0362C151.431 18.1974 151.74 18.466 152.975 19.3388C153.741 19.8626 153.929 19.9431 154.184 19.8223C154.466 19.7014 154.439 19.6746 153.808 19.2448C153.445 18.9897 152.908 18.5868 152.599 18.3451C152.035 17.8885 151.686 17.7945 151.538 18.0362Z" fill="#1F2937" stroke="#EA580C"/>
<path d="M142.755 20.8025C142.406 21.9574 142.352 22.2663 142.5 22.3469C142.742 22.508 142.822 22.4946 142.97 22.2932C143.158 22.0649 143.937 19.5402 143.843 19.4462C143.803 19.4059 143.641 19.3791 143.48 19.3791C143.225 19.3791 143.131 19.5671 142.755 20.8025Z" fill="#1F2937" stroke="#EA580C"/>
<path d="M147.898 19.8491C147.791 20.1042 148.046 21.3666 148.328 22.038C148.476 22.3872 148.583 22.4812 148.811 22.4409C149.16 22.3872 149.16 22.4006 148.758 20.8563C148.529 20.0371 148.382 19.7014 148.207 19.6745C148.086 19.6477 147.938 19.7282 147.898 19.8491Z" fill="#1F2937" stroke="#EA580C"/>
</svg>
