<svg width="72" height="72" viewBox="0 0 72 72" fill="none" xmlns="http://www.w3.org/2000/svg">
<circle cx="36" cy="36" r="35" fill="#FFF7ED" stroke="#1F2937" stroke-width="2"/>
<path d="M19.004 18.2797C18.9456 18.4548 18.9456 18.6299 19.004 18.6883C19.0623 18.7467 18.6343 20.2059 18.0506 21.9375C17.4669 23.669 17 25.245 17 25.4395C17 25.6341 17.5253 26.9182 18.1479 28.2607C20.5799 33.4554 28.1483 50.2265 28.4207 50.9853C28.8098 52.1332 29.3157 52.5223 31.6115 53.4757C32.7205 53.9426 34.5104 54.7209 35.561 55.2267C37.4483 56.1022 37.9347 56.1995 38.1098 55.6937C38.1487 55.5575 38.6935 54.0983 39.2966 52.464C39.9387 50.6935 40.3472 49.3121 40.2889 49.0592C40.2305 48.8257 39.4717 46.919 38.5962 44.8372C37.7207 42.7554 34.9968 36.1987 32.5454 30.2646C30.0939 24.3306 28.0121 19.3887 27.9343 19.3109C27.837 19.2136 26.0665 18.9996 23.9847 18.8245C21.3776 18.6299 20.113 18.4548 19.8989 18.2603C19.5098 17.9101 19.1596 17.9101 19.004 18.2797ZM23.7512 19.4665C25.0548 19.5444 26.2222 19.6611 26.3583 19.7389C26.5335 19.8557 26.1638 20.6923 25.0548 22.7546C24.1987 24.3306 23.4205 25.6147 23.3232 25.6147C23.1286 25.6147 20.5215 19.8168 20.5021 19.3693C20.5021 19.1942 20.6383 19.1553 20.9496 19.2136C21.183 19.272 22.4477 19.3887 23.7512 19.4665ZM21.0858 23.455C21.7862 25.0504 22.3699 26.4318 22.4088 26.5291C22.4282 26.6264 21.5138 26.3151 20.3659 25.8481C19.218 25.3812 18.2646 24.9337 18.2646 24.8364C18.2646 24.5057 19.6071 20.5172 19.7044 20.5172C19.7822 20.5172 20.3853 21.8402 21.0858 23.455ZM31.8839 31.3153C34.2186 36.977 36.7673 43.164 37.565 45.0318C38.3627 46.8995 39.0631 48.6895 39.102 49.0202C39.1993 49.6428 37.8179 53.8064 37.5066 53.8259C37.1175 53.8453 30.4441 41.0822 26.1249 31.9962L23.8485 27.2295L25.4245 24.2138C27.1366 20.9063 27.3117 20.6145 27.5063 20.8479C27.5841 20.9258 29.5491 25.6341 31.8839 31.3153ZM20.5021 26.7236C21.4749 27.1322 22.4477 27.5992 22.7006 27.7743C22.9535 27.9494 23.7707 29.3891 24.763 31.5293C27.156 36.6073 31.2224 44.6621 34.0435 49.8958C35.3859 52.4056 36.5533 54.5847 36.6117 54.7209C36.67 54.896 36.3587 54.8181 35.7556 54.5068C35.2108 54.2345 33.9657 53.6702 32.9539 53.2422C31.9422 52.8142 30.8721 52.3667 30.5803 52.2305C30.1328 52.0165 29.2184 50.1292 24.2182 39.0977C20.9885 32.0157 18.3619 26.1594 18.3619 26.0816C18.3619 25.8481 18.751 25.9649 20.5021 26.7236Z" fill="#111827"/>
<path d="M52.4644 42.2051C52.2918 42.2539 51.6557 42.7188 51.0413 43.2215C50.4268 43.7242 49.4779 44.3083 48.9494 44.541C48.0703 44.9146 47.6656 44.9259 46.505 44.5984C46.03 44.4695 46.0306 44.8904 46.5005 45.2028C47.5051 45.8705 47.0768 48.3425 45.3706 51.507C44.9454 52.3224 44.8165 52.7273 44.9409 52.9268C45.249 53.3419 45.5024 53.2066 46.553 52.0126C47.8246 50.5917 49.4636 49.6019 51.26 49.1839C52.0529 49.0101 52.6948 48.7826 52.6785 48.7017C52.6514 48.637 52.4349 48.1894 52.1753 47.7365C51.5857 46.6905 51.708 45.4168 52.5799 43.7536C53.0427 42.8464 53.1501 42.4739 52.9772 42.3123C52.8422 42.1991 52.6208 42.1455 52.4644 42.2051ZM50.8986 45.4395C50.7912 45.812 50.8462 46.5728 50.9981 47.1176L51.28 48.0993L49.7698 48.614C48.9446 48.9065 48.1195 49.2692 47.9255 49.4206C47.4781 49.7773 47.4021 49.4698 47.7248 48.7032C47.8646 48.3522 47.9445 47.5643 47.9059 46.9546L47.8342 45.8323L48.7242 45.5828C49.2043 45.458 49.9054 45.1765 50.2451 44.9817C50.5793 44.76 50.9029 44.6247 50.9677 44.6678C51.0163 44.7001 50.9898 45.0562 50.8986 45.4395Z" fill="#111827"/>
<path d="M48.8505 29.7133C48.2085 30.258 47.5664 30.7055 47.4302 30.7055C47.1384 30.7055 45.6403 29.7133 45.2706 29.2658C44.9593 28.8961 44.0838 28.8572 44.0838 29.2074C44.0838 29.363 44.2978 30.1218 44.5702 30.9001C44.8426 31.6783 45.0566 32.4371 45.0566 32.5733C45.0566 32.7095 44.22 33.4877 43.2083 34.3243C41.9436 35.336 41.3988 35.8808 41.535 36.017C41.6712 36.1532 42.43 36.1337 43.8892 35.9586C45.076 35.8224 46.0683 35.7446 46.1072 35.7835C46.1461 35.8224 46.5158 36.912 46.9438 38.1961C47.6248 40.2973 47.761 40.5308 48.189 40.5892C48.6754 40.6475 48.6949 40.5697 49.2202 38.2544C49.512 36.9314 49.8233 35.7252 49.9011 35.5695C50.0179 35.3555 50.5821 35.2388 51.9829 35.122C53.7145 34.9858 54.6484 34.694 54.1036 34.4605C54.0063 34.4216 53.1697 33.9741 52.2553 33.4683L50.6015 32.5344V31.6783C50.621 31.1919 50.6599 30.3553 50.6988 29.83C50.7766 28.9739 50.7572 28.8572 50.407 28.7988C50.1735 28.7794 49.5509 29.1296 48.8505 29.7133ZM49.4536 31.6005C49.3564 31.8534 49.2785 31.834 48.87 31.5616L48.3836 31.2503L48.9089 30.8028L49.4342 30.3358L49.4926 30.8417C49.5315 31.0946 49.512 31.4448 49.4536 31.6005ZM46.5352 31.3086C46.5936 31.4254 46.5547 31.6199 46.438 31.7367C46.185 31.9896 45.9321 31.7756 45.7375 31.1335C45.6208 30.725 45.6403 30.6861 45.9905 30.8806C46.2239 30.9974 46.4574 31.1919 46.5352 31.3086ZM48.4419 32.2814C49.2007 32.7289 49.3369 33.2932 48.9478 34.2854C48.7921 34.7329 48.6559 34.7913 47.8193 34.7913H46.8854L46.652 33.8768C46.4185 33.0208 46.4185 32.9624 46.9244 32.4176C47.5664 31.7561 47.5664 31.7561 48.4419 32.2814ZM51.302 33.8379C51.7494 34.0519 52.0607 34.266 52.0218 34.2854C52.0024 34.3243 51.5549 34.4216 51.049 34.48L50.1151 34.6162V34.0325C50.1151 33.3126 50.2708 33.2932 51.302 33.8379ZM45.7375 34.4411C45.8543 34.8886 45.7959 34.9858 45.4068 35.0637C44.5702 35.2388 43.6947 35.3166 43.6947 35.1999C43.6947 34.9664 45.3484 33.6628 45.4846 33.7796C45.5624 33.8574 45.6792 34.1492 45.7375 34.4411ZM48.7532 35.5501C48.7532 35.9392 48.2863 37.807 48.1501 37.9626C48.0723 38.0599 47.8582 37.6708 47.6831 37.0871C47.4886 36.5229 47.294 35.9586 47.2551 35.8224C47.1773 35.6084 47.5859 35.4722 48.4225 35.3944C48.5976 35.3944 48.7532 35.4528 48.7532 35.5501Z" fill="#111827"/>
<path d="M33.2705 53.8968L37.4292 55.429L38.7425 51.708L33.2705 53.8968Z" fill="#111827"/>
</svg>
