<svg width="20" height="20" viewBox="0 0 20 20" fill="none" xmlns="http://www.w3.org/2000/svg">
<path d="M18.416 7.58333C18.3327 4.75 16.0827 2.5 13.2494 2.5C12.3327 2.5 10.916 3.16667 10.3327 4.25C10.2493 4.5 9.91602 4.5 9.83268 4.25C9.16602 3.25 7.83268 2.58333 6.83268 2.58333C4.08268 2.58333 1.74935 4.83333 1.66602 7.58333V7.75C1.66602 9.16667 2.24935 10.5 3.24935 11.5C3.24935 11.5 3.24935 11.5 3.24935 11.5833C3.33268 11.6667 7.33268 15.1667 9.16602 16.75C9.66602 17.1667 10.416 17.1667 10.916 16.75C12.7494 15.1667 16.666 11.6667 16.8327 11.5833C16.8327 11.5833 16.8327 11.5833 16.8327 11.5C17.8327 10.5833 18.416 9.25 18.416 7.75V7.58333Z" fill="#F6F8F8"/>
</svg>
