<svg width="16" height="17" viewBox="0 0 16 17" fill="none" xmlns="http://www.w3.org/2000/svg">
<path d="M6.53333 11.35C6.4 11.2167 6.336 11.0556 6.34133 10.8667C6.34711 10.6778 6.41667 10.5167 6.55 10.3833L7.76667 9.16667H2.66667C2.47778 9.16667 2.31956 9.10267 2.192 8.97467C2.064 8.84711 2 8.68889 2 8.5C2 8.31111 2.064 8.15267 2.192 8.02467C2.31956 7.89711 2.47778 7.83333 2.66667 7.83333H7.76667L6.53333 6.6C6.4 6.46667 6.33333 6.30844 6.33333 6.12533C6.33333 5.94178 6.4 5.78333 6.53333 5.65C6.66667 5.51667 6.82511 5.45 7.00867 5.45C7.19178 5.45 7.35 5.51667 7.48333 5.65L9.86667 8.03333C9.93333 8.1 9.98067 8.17222 10.0087 8.25C10.0362 8.32778 10.05 8.41111 10.05 8.5C10.05 8.58889 10.0362 8.67222 10.0087 8.75C9.98067 8.82778 9.93333 8.9 9.86667 8.96667L7.46667 11.3667C7.34444 11.4889 7.19178 11.55 7.00867 11.55C6.82511 11.55 6.66667 11.4833 6.53333 11.35ZM3.33333 14.5C2.96667 14.5 2.65267 14.3696 2.39133 14.1087C2.13044 13.8473 2 13.5333 2 13.1667V11.1667C2 10.9778 2.064 10.8193 2.192 10.6913C2.31956 10.5638 2.47778 10.5 2.66667 10.5C2.85556 10.5 3.014 10.5638 3.142 10.6913C3.26956 10.8193 3.33333 10.9778 3.33333 11.1667V13.1667H12.6667V3.83333H3.33333V5.83333C3.33333 6.02222 3.26956 6.18044 3.142 6.308C3.014 6.436 2.85556 6.5 2.66667 6.5C2.47778 6.5 2.31956 6.436 2.192 6.308C2.064 6.18044 2 6.02222 2 5.83333V3.83333C2 3.46667 2.13044 3.15267 2.39133 2.89133C2.65267 2.63044 2.96667 2.5 3.33333 2.5H12.6667C13.0333 2.5 13.3473 2.63044 13.6087 2.89133C13.8696 3.15267 14 3.46667 14 3.83333V13.1667C14 13.5333 13.8696 13.8473 13.6087 14.1087C13.3473 14.3696 13.0333 14.5 12.6667 14.5H3.33333Z" fill="#262F33"/>
</svg>
