<svg width="16" height="17" viewBox="0 0 16 17" fill="none" xmlns="http://www.w3.org/2000/svg">
<g clip-path="url(#clip0_401_24155)">
<path d="M8.00033 4.50033C8.73366 4.50033 9.33366 5.10033 9.33366 5.83366C9.33366 6.56699 8.73366 7.16699 8.00033 7.16699C7.26699 7.16699 6.66699 6.56699 6.66699 5.83366C6.66699 5.10033 7.26699 4.50033 8.00033 4.50033ZM8.00033 11.167C9.80032 11.167 11.867 12.027 12.0003 12.5003H4.00033C4.15366 12.0203 6.20699 11.167 8.00033 11.167ZM8.00033 3.16699C6.52699 3.16699 5.33366 4.36033 5.33366 5.83366C5.33366 7.30699 6.52699 8.50033 8.00033 8.50033C9.47366 8.50033 10.667 7.30699 10.667 5.83366C10.667 4.36033 9.47366 3.16699 8.00033 3.16699ZM8.00033 9.83366C6.22033 9.83366 2.66699 10.727 2.66699 12.5003V13.8337H13.3337V12.5003C13.3337 10.727 9.78032 9.83366 8.00033 9.83366Z" fill="#262F33"/>
</g>
<defs>
<clipPath id="clip0_401_24155">
<rect width="16" height="16" fill="white" transform="translate(0 0.5)"/>
</clipPath>
</defs>
</svg>
