<svg width="41" height="40" viewBox="0 0 41 40" fill="none" xmlns="http://www.w3.org/2000/svg">
<path d="M20.333 0C9.29301 0 0.333008 8.96 0.333008 20C0.333008 31.04 9.29301 40 20.333 40C31.373 40 40.333 31.04 40.333 20C40.333 8.96 31.373 0 20.333 0ZM20.333 8C24.193 8 27.333 11.14 27.333 15C27.333 18.86 24.193 22 20.333 22C16.473 22 13.333 18.86 13.333 15C13.333 11.14 16.473 8 20.333 8ZM20.333 36C16.273 36 11.473 34.36 8.05301 30.24C11.433 27.6 15.693 26 20.333 26C24.973 26 29.233 27.6 32.613 30.24C29.193 34.36 24.393 36 20.333 36Z" fill="#D4D4D4" fill-opacity="0.4"/>
</svg>
