<svg width="20" height="20" viewBox="0 0 20 20" fill="none" xmlns="http://www.w3.org/2000/svg">
<path d="M7.49935 1.66699C4.28756 1.66699 1.66602 4.28853 1.66602 7.50033C1.66602 10.7121 4.28756 13.3337 7.49935 13.3337C8.95601 13.3337 10.2869 12.7903 11.3112 11.9014L11.666 12.2562V13.3337L16.666 18.3337L18.3327 16.667L13.3327 11.667H12.2552L11.9004 11.3122C12.7894 10.2878 13.3327 8.95699 13.3327 7.50033C13.3327 4.28853 10.7111 1.66699 7.49935 1.66699ZM7.49935 3.33366C9.81041 3.33366 11.666 5.18927 11.666 7.50033C11.666 9.81138 9.81041 11.667 7.49935 11.667C5.18829 11.667 3.33268 9.81138 3.33268 7.50033C3.33268 5.18927 5.18829 3.33366 7.49935 3.33366Z" fill="white"/>
</svg>
